<?xml version="1.0" standalone="no"?>
<!DOCTYPE svg PUBLIC "-//W3C//DTD SVG 20010904//EN"
 "http://www.w3.org/TR/2001/REC-SVG-20010904/DTD/svg10.dtd">
<svg version="1.0" xmlns="http://www.w3.org/2000/svg"
 width="1688.000000pt" height="300.000000pt" viewBox="0 0 1688.000000 300.000000"
 preserveAspectRatio="xMidYMid meet">

<g transform="translate(0.000000,300.000000) scale(0.100000,-0.100000)"
fill="#000000" stroke="none">
<path d="M3182 2887 c-49 -18 -154 -119 -173 -165 -13 -33 -12 -2565 2 -2615
18 -65 38 -72 246 -75 l183 -4 35 35 35 35 0 130 0 131 78 -77 c185 -185 333
-255 537 -256 138 0 220 24 342 101 47 29 90 50 97 46 6 -3 29 -21 51 -38 120
-96 274 -119 392 -60 47 24 48 24 68 5 55 -51 184 -69 378 -52 101 8 111 11
138 38 19 20 32 46 39 82 6 31 9 233 9 486 -1 439 2 476 35 476 8 0 26 -14 40
-31 14 -17 26 -26 26 -20 0 8 135 11 449 11 l449 0 7 -77 c14 -141 2 -220 -49
-320 -54 -109 -66 -149 -66 -235 l0 -68 55 0 c54 0 55 -1 55 -29 l0 -29 -254
-1 c-194 -1 -257 2 -263 11 -4 7 -10 78 -11 157 l-4 143 70 142 c98 195 96
186 25 186 l-58 0 -16 -52 -17 -53 -1 70 c-2 84 -9 115 -27 115 -10 0 -12 -9
-7 -31 l6 -32 -153 5 c-136 4 -154 6 -167 24 -14 18 -15 18 -8 -6 32 -108 52
-120 215 -120 l120 0 0 -162 c0 -90 5 -233 11 -318 6 -85 12 -189 14 -230 2
-41 4 -78 4 -82 1 -5 10 -17 21 -28 19 -19 33 -20 244 -20 219 0 226 1 251 23
l26 22 3 260 c2 143 4 354 5 468 1 207 7 236 32 159 19 -61 133 -355 205 -532
37 -91 83 -206 103 -256 47 -118 58 -133 106 -145 44 -10 240 -1 267 12 9 5
20 19 23 31 4 13 42 109 86 213 80 195 246 620 268 688 7 20 17 35 22 32 5 -4
9 -175 9 -409 0 -433 5 -496 45 -536 24 -24 28 -24 218 -28 179 -4 197 -3 241
16 60 27 76 63 76 172 0 44 3 80 6 80 3 0 35 -27 70 -59 86 -78 195 -153 271
-185 59 -25 72 -26 232 -26 198 0 230 8 356 91 l77 50 68 -51 c91 -67 135 -82
245 -84 103 -1 135 12 260 107 101 77 111 93 107 184 -4 99 -27 148 -79 162
-56 16 -73 14 -114 -15 -47 -32 -71 -29 -79 11 -3 17 -3 145 0 285 4 229 6
250 18 210 91 -320 207 -502 437 -687 142 -114 354 -233 415 -233 12 0 30 -5
40 -10 33 -18 185 -28 280 -19 98 9 254 47 325 78 64 28 212 129 275 188 32
29 71 79 89 113 18 33 34 60 36 60 2 0 19 -28 37 -62 61 -115 226 -263 377
-339 l66 -34 181 -3 c173 -3 183 -3 241 21 34 14 93 46 133 71 l72 47 66 -49
c93 -69 148 -87 252 -86 92 0 117 9 202 71 l48 35 21 -37 c44 -74 159 -99 390
-85 128 9 154 18 186 67 16 25 18 70 23 508 3 264 9 486 13 493 13 20 44 14
66 -14 11 -14 29 -54 41 -89 12 -36 29 -74 39 -86 24 -30 103 -41 231 -33 97
7 107 9 132 35 33 33 36 72 11 145 -38 113 -122 214 -246 295 -121 80 -182
102 -287 103 -92 0 -142 -12 -205 -53 -35 -23 -53 -26 -157 -31 -106 -5 -120
-8 -164 -35 -93 -59 -89 -34 -92 -466 l-3 -379 -23 6 c-14 3 -36 -2 -57 -15
-42 -26 -65 -27 -74 -4 -3 10 -6 191 -5 403 l1 386 -36 41 c-45 53 -108 69
-240 59 -134 -10 -165 -19 -202 -62 l-32 -36 -44 25 c-24 15 -80 38 -123 53
-66 23 -97 28 -184 28 -90 1 -118 -3 -193 -28 -94 -31 -246 -123 -320 -194
-52 -49 -109 -134 -140 -208 -16 -36 -31 -58 -39 -55 -22 7 -209 20 -291 20
-75 1 -137 -16 -137 -38 0 -5 -27 -37 -61 -70 -75 -76 -132 -96 -251 -89 -66
4 -90 11 -154 43 -124 63 -166 123 -242 350 -72 213 -94 406 -68 604 22 164
48 256 106 378 61 126 94 155 182 161 102 8 152 -10 243 -83 44 -36 108 -79
141 -95 60 -29 66 -30 209 -30 188 0 279 14 305 48 30 37 25 70 -30 188 -113
240 -212 363 -388 478 -164 107 -334 166 -475 166 -89 0 -246 -33 -332 -70
-93 -40 -239 -146 -323 -235 -93 -98 -215 -275 -266 -387 -86 -185 -127 -533
-97 -818 4 -41 7 -78 5 -81 -2 -4 -23 3 -46 15 -37 18 -59 21 -153 19 -139 -2
-190 -15 -230 -59 l-32 -34 -69 34 c-184 92 -373 96 -553 11 -80 -38 -181
-107 -247 -167 l-42 -38 -4 842 c-5 760 -7 846 -22 874 -24 46 -36 53 -112 69
-84 18 -457 21 -534 4 -41 -9 -55 -17 -71 -42 -28 -46 -185 -540 -368 -1159
-14 -49 -30 -87 -35 -85 -10 3 -21 40 -162 507 -159 527 -224 722 -252 753
l-26 27 -300 0 c-314 0 -351 -4 -377 -44 -16 -25 -32 -799 -27 -1331 l3 -320
-50 54 c-65 70 -204 161 -281 185 -44 13 -83 17 -141 15 -71 -4 -90 -9 -166
-47 -80 -41 -89 -43 -140 -37 -86 11 -158 -9 -213 -58 -36 -34 -47 -51 -53
-87 -10 -56 -15 -480 -6 -480 9 0 84 163 87 190 3 20 -2 24 -32 24 l-35 1 -3
57 -3 58 286 0 285 0 0 -49 c0 -38 -4 -50 -18 -53 -11 -3 -24 -26 -36 -63 -10
-31 -49 -122 -87 -201 -60 -124 -71 -156 -79 -224 -5 -44 -7 -87 -4 -95 5 -11
22 -15 65 -15 l59 0 0 81 c0 90 20 181 53 243 12 23 27 55 34 71 10 27 12 23
12 -45 0 -42 -6 -93 -14 -115 -20 -57 -21 -235 0 -235 10 0 15 -10 15 -27 l0
-28 -1023 -2 -1022 -2 -17 29 -17 30 44 0 45 0 0 48 c1 112 27 202 99 347 39
77 73 153 77 168 l6 28 -57 -3 -58 -3 -14 -55 c-7 -30 -45 -119 -83 -196 -57
-115 -72 -155 -79 -214 -5 -40 -16 -79 -25 -89 -9 -10 -16 -34 -16 -54 l0 -37
-157 0 c-87 0 -188 3 -225 7 -63 5 -68 8 -68 29 0 17 6 24 20 24 17 0 20 7 20
49 0 101 28 201 91 329 51 104 89 193 89 208 0 2 -27 4 -60 4 -57 0 -60 -1
-66 -27 -9 -45 -43 -134 -69 -183 l-24 -45 -1 81 c0 48 6 99 15 124 8 23 15
44 15 46 0 2 -7 4 -15 4 -12 0 -15 13 -15 55 l0 55 224 0 c215 0 224 -1 229
-20 6 -25 33 -26 46 -2 9 18 41 19 573 26 310 4 625 4 701 0 l137 -7 -1 -31
c-2 -66 -12 -81 -55 -82 -21 -1 -44 -2 -51 -3 -6 0 -14 -19 -18 -40 -4 -22
-40 -109 -82 -193 -63 -130 -76 -165 -85 -234 -15 -110 -12 -116 59 -112 l58
3 7 95 c9 133 11 139 88 293 l70 139 0 -88 c0 -83 -3 -94 -40 -170 -29 -59
-44 -106 -52 -162 -15 -106 -12 -112 57 -112 l55 0 0 41 c0 35 2 40 15 29 8
-6 23 -9 34 -5 17 5 20 1 23 -27 3 -33 3 -33 61 -36 l57 -3 0 58 c0 107 26
210 79 307 57 105 102 214 93 220 -4 2 -30 2 -58 -1 l-51 -5 -17 -58 c-17 -55
-127 -285 -147 -304 -5 -6 -9 -33 -9 -62 0 -38 -4 -53 -16 -58 -27 -10 -42 -7
-49 11 -3 10 -6 190 -5 400 1 366 0 384 -20 423 -29 57 -61 70 -172 69 -51 0
-126 -4 -166 -8 -70 -7 -74 -8 -110 -50 l-38 -44 -54 31 c-30 17 -79 38 -107
47 -29 10 -53 20 -53 24 0 3 31 26 68 51 101 68 224 193 261 267 48 97 82 225
83 318 1 84 -15 179 -38 230 -7 17 -25 61 -39 100 -41 111 -148 284 -205 333
-48 42 -194 130 -261 158 -155 65 -163 66 -537 73 -315 5 -348 5 -390 -12z
m636 -54 c-10 -2 -26 -2 -35 0 -10 3 -2 5 17 5 19 0 27 -2 18 -5z m4427 -23
c5 -4 26 -11 46 -15 36 -7 36 -7 43 -67 16 -152 5 -200 -90 -393 -35 -71 -67
-145 -70 -162 l-6 -33 58 0 59 0 12 48 c6 26 18 63 26 82 15 34 15 29 16 -107
l1 -143 -475 0 c-373 0 -475 3 -475 13 0 6 8 33 17 60 l17 47 52 0 52 0 7 38
c3 20 24 79 46 129 21 51 39 95 39 97 0 2 -9 2 -20 -1 -11 -3 -20 -3 -20 0 0
3 22 76 49 161 27 85 46 158 43 161 -3 3 -18 5 -34 5 -31 0 -33 6 -18 44 8 22
16 26 47 26 21 0 45 6 54 13 19 14 506 12 524 -3z m-4240 -5 c33 -8 76 -14 97
-15 20 0 59 -12 87 -26 46 -24 49 -28 33 -40 -10 -8 -12 -13 -5 -14 7 0 30
-16 52 -35 45 -41 49 -42 53 -15 3 19 5 19 35 -9 30 -27 32 -33 27 -78 -5 -43
-2 -53 27 -92 l32 -43 14 26 c7 14 16 26 18 26 3 0 13 -17 23 -37 l19 -37 -53
-110 c-29 -61 -56 -123 -60 -138 l-6 -28 61 0 c54 0 61 2 61 20 0 10 10 45 21
76 l22 57 19 -39 c13 -28 17 -50 13 -76 -5 -30 -3 -38 8 -38 15 0 27 -40 27
-91 l0 -29 -291 0 -291 0 30 34 c17 19 33 45 37 57 4 13 13 29 20 35 7 7 15
31 19 54 3 23 20 71 36 107 17 36 30 67 30 69 0 2 -20 4 -45 4 -44 0 -45 -1
-76 -56 l-32 -56 -23 29 c-28 34 -28 32 -9 76 l14 35 -36 28 c-20 15 -38 23
-40 17 -2 -5 -10 -19 -18 -29 -11 -15 -16 -17 -26 -6 -7 6 -21 12 -31 12 -15
0 -16 3 -6 25 10 22 8 28 -11 46 -31 29 -62 21 -86 -23 -15 -28 -28 -38 -53
-43 -18 -3 -40 -9 -49 -12 -13 -5 -13 -1 2 27 13 24 14 35 5 40 -8 5 -7 9 3
13 16 6 33 75 40 165 l4 52 -48 0 -49 0 0 -51 c0 -27 -8 -82 -17 -122 -10 -40
-18 -76 -18 -82 0 -5 -10 -21 -23 -35 -31 -34 -132 -238 -132 -267 0 -14 6
-23 15 -23 8 0 15 -7 15 -17 0 -9 10 -30 23 -47 13 -17 27 -37 31 -43 6 -10
-48 -13 -253 -13 l-261 0 0 110 0 110 64 143 c70 154 85 204 86 285 0 48 -2
52 -24 52 -13 0 -37 3 -53 6 l-30 6 -6 -84 c-3 -45 -12 -103 -20 -128 l-13
-45 -6 115 c-6 124 -1 145 44 188 25 23 25 23 369 23 189 1 367 5 394 9 78 12
105 11 170 -5z m2771 0 c46 -6 51 -10 60 -38 5 -18 6 -76 2 -132 -7 -97 7
-192 32 -219 5 -4 18 11 31 35 l22 44 14 -49 15 -49 -46 -98 c-25 -53 -49
-111 -52 -128 l-6 -31 56 0 c36 0 58 4 61 13 2 6 9 32 15 56 6 23 13 41 15 39
4 -4 65 -212 65 -222 0 -3 -214 -6 -475 -6 l-475 0 0 58 0 57 44 0 c24 0 47 3
50 6 4 3 13 31 21 62 8 31 28 87 45 123 16 37 30 71 30 75 0 5 -17 9 -38 9
-47 0 -60 -13 -113 -112 l-38 -73 -1 71 c0 62 5 82 37 149 33 70 37 87 41 181
l5 104 -42 0 c-39 0 -41 2 -41 30 0 27 3 30 33 30 17 1 43 7 57 15 21 12 70
14 275 11 138 -2 273 -7 301 -11z m4379 -40 c68 -36 75 -45 39 -45 l-29 -1 25
-15 c14 -8 18 -13 9 -10 -14 4 -18 -7 -23 -65 -9 -88 -39 -181 -77 -236 -17
-24 -48 -81 -71 -128 l-41 -86 -24 23 c-30 28 -28 39 39 178 53 113 74 183 80
272 l5 56 -49 4 -48 3 0 -53 c0 -76 -26 -179 -60 -237 -16 -27 -43 -76 -59
-107 -30 -56 -33 -58 -71 -58 -22 0 -40 2 -40 4 0 2 23 52 50 111 57 122 76
183 86 273 l7 62 -50 0 -50 0 -6 -74 c-8 -89 -40 -182 -95 -273 -23 -37 -52
-93 -65 -123 -14 -31 -31 -61 -39 -68 -8 -7 -30 -43 -47 -82 l-33 -70 -360 0
-361 0 7 42 c8 52 62 188 82 208 9 9 5 -9 -11 -47 -14 -35 -25 -67 -25 -73 0
-6 25 -10 58 -10 l59 0 17 61 c9 33 32 91 51 129 56 111 105 237 105 269 0 22
9 37 37 60 21 17 41 31 45 31 13 0 9 -88 -8 -153 -8 -35 -29 -87 -45 -117 -47
-87 -117 -233 -124 -257 -6 -22 -4 -23 52 -23 l58 0 19 64 c10 35 43 115 73
178 63 130 83 198 83 280 l0 58 -31 0 c-27 0 -30 2 -19 15 7 8 17 15 22 15 6
0 22 9 37 19 37 26 65 28 441 25 l325 -2 50 -27z m195 -167 c0 -27 10 -51 33
-82 17 -25 35 -45 39 -45 4 -1 10 10 14 24 8 32 14 31 41 -6 24 -35 32 -11
-66 -211 -29 -60 -51 -116 -49 -125 3 -15 14 -18 57 -18 l54 0 22 70 c12 39
30 85 39 104 l18 34 21 -32 20 -33 -22 -61 c-29 -85 -29 -87 25 -87 44 0 45
-1 42 -27 -3 -25 -8 -29 -50 -35 -26 -3 -52 -9 -57 -13 -17 -10 -328 -7 -348
4 -10 5 -32 14 -48 20 -17 6 -44 22 -60 36 l-30 24 25 1 c22 0 27 8 43 63 17
57 56 157 78 199 13 25 11 28 -8 21 -10 -4 -4 5 13 20 31 26 60 98 67 165 2
17 7 35 10 39 4 3 7 15 7 25 0 17 4 16 35 -9 29 -23 35 -35 35 -65z m-110 67
c11 -13 10 -14 -4 -9 -9 3 -16 10 -16 15 0 13 6 11 20 -6z m-3660 -115 c-13
-50 -91 -222 -97 -216 -3 2 9 44 25 93 17 48 41 124 54 168 22 76 23 78 26 40
2 -21 -2 -60 -8 -85z m-3686 -141 c39 -14 67 -34 94 -66 50 -57 106 -169 106
-209 0 -64 -70 -128 -181 -165 -123 -41 -274 -9 -348 73 -54 59 -59 80 -33
141 59 140 129 214 225 236 59 14 78 13 137 -10z m6056 -39 c-6 -11 -13 -20
-16 -20 -2 0 0 9 6 20 6 11 13 20 16 20 2 0 0 -9 -6 -20z m-37 -65 c-3 -9 -8
-14 -10 -11 -3 3 -2 9 2 15 9 16 15 13 8 -4z m-2705 -748 c17 -8 25 -8 34 1 9
9 151 12 555 12 l543 0 0 -54 0 -53 -107 -7 c-128 -8 -1568 -6 -1895 2 l-228
5 0 53 c0 52 0 53 33 56 81 9 1043 -4 1065 -15z m-2780 -20 c-20 -17 -51 -43
-69 -57 l-33 -25 -456 -4 c-250 -1 -542 0 -647 4 l-193 7 0 54 0 54 718 0 717
-1 -37 -32z m6002 -21 l0 -53 -61 -7 c-80 -8 -511 -7 -569 2 l-45 7 -3 53 -3
52 340 0 341 0 0 -54z m-6765 -299 c-16 -12 -57 -48 -89 -79 -33 -32 -61 -58
-63 -58 -1 0 -3 36 -3 80 l0 80 93 -1 92 0 -30 -22z m4098 -159 c-6 -7 -16
-34 -23 -60 -12 -47 -14 -48 -51 -48 -37 0 -38 -1 -54 -57 -9 -32 -48 -121
-87 -199 -67 -134 -70 -145 -75 -227 -5 -72 -3 -88 9 -92 13 -5 14 -12 5 -36
l-11 -29 -251 0 -251 0 -11 30 c-11 30 -11 30 23 30 33 0 34 1 34 38 0 108 27
206 98 352 98 200 96 190 25 190 l-59 0 -13 -51 c-8 -29 -44 -114 -82 -191
-38 -76 -72 -157 -75 -179 l-7 -39 -23 51 c-13 28 -24 57 -24 64 0 7 31 75 70
151 38 77 72 151 76 167 l6 27 -59 0 -58 0 -13 -52 c-6 -28 -25 -79 -40 -112
l-29 -61 -17 39 c-20 47 -20 64 -2 107 32 80 33 79 -23 79 l-49 0 -10 43 c-5
23 -13 50 -17 60 -7 16 23 17 535 17 432 0 540 -3 533 -12z m1997 -48 c0 -56
-2 -60 -23 -60 -19 0 -24 -8 -35 -52 -6 -29 -44 -116 -82 -194 -58 -117 -72
-155 -81 -222 -16 -106 -13 -112 56 -112 l55 0 0 49 c0 86 28 202 67 281 l38
75 3 -84 c2 -59 -2 -96 -14 -126 -9 -24 -17 -76 -18 -117 l-1 -73 58 -3 57 -3
0 30 c0 21 8 35 29 50 16 12 32 21 35 21 3 0 6 -24 8 -52 l3 -53 57 -3 c52 -3
57 -1 61 20 2 13 5 2 6 -24 l1 -48 -817 0 -817 0 -27 26 c-26 25 -27 25 -33 6
-9 -26 -72 -32 -332 -32 l-202 0 -2 168 -1 167 65 130 c91 183 90 175 18 175
l-59 0 -10 -42 c-10 -41 -11 -40 -12 37 0 44 2 90 5 102 l6 23 969 0 969 0 0
-60z m777 0 l20 -60 -47 0 -47 0 -7 -42 c-4 -24 -40 -113 -81 -198 -63 -130
-77 -168 -85 -232 -5 -43 -7 -84 -4 -92 4 -9 24 -15 59 -18 l53 -3 6 80 c10
117 31 188 88 295 27 52 58 113 67 137 l16 42 25 -45 24 -46 -67 -135 c-55
-110 -70 -149 -79 -213 -15 -106 -12 -112 58 -108 l56 3 5 70 c6 101 29 192
65 255 17 30 32 56 33 58 2 2 17 -4 34 -13 l31 -15 -39 -78 c-40 -80 -61 -162
-61 -239 l0 -44 61 3 60 3 5 74 c5 87 18 152 40 202 15 34 17 35 52 29 20 -3
36 -10 35 -16 -1 -5 -14 -40 -28 -79 -18 -47 -27 -93 -28 -140 l-2 -70 55 -3
56 -3 11 109 c11 112 40 202 65 202 8 0 30 8 50 19 l37 18 -30 -58 c-38 -76
-59 -158 -59 -231 l0 -58 60 0 60 0 0 79 c0 100 24 180 96 316 54 102 57 105
90 105 23 0 34 -5 34 -14 0 -8 -29 -72 -64 -142 -67 -132 -91 -218 -84 -299
l3 -40 55 0 55 0 6 85 c8 115 21 155 92 292 61 117 69 126 110 110 16 -7 12
-20 -41 -127 -32 -66 -66 -142 -75 -170 -19 -61 -32 -180 -20 -188 4 -3 33 -7
63 -8 l55 -3 6 89 c3 50 9 106 14 125 11 50 117 259 133 262 7 2 23 32 35 68
12 36 35 86 50 113 l28 47 694 0 695 0 0 -60 0 -60 -43 0 -43 0 -13 -51 c-8
-29 -44 -114 -82 -190 -70 -142 -93 -220 -87 -299 l3 -45 58 -3 57 -3 0 53 c0
99 33 216 93 333 l56 110 0 -84 c1 -74 -3 -92 -29 -148 -33 -70 -50 -140 -50
-209 l0 -44 60 0 c57 0 60 1 60 25 0 18 5 25 19 25 11 0 23 5 26 10 13 21 25
9 25 -25 l0 -35 60 0 60 0 0 64 c0 109 24 192 94 332 36 71 69 142 72 157 l6
28 -58 -3 c-54 -3 -59 -5 -62 -28 -2 -14 -18 -61 -35 -105 -29 -77 -31 -79
-39 -50 -4 17 -5 37 -2 45 3 8 5 70 5 137 l0 123 289 0 290 0 0 -37 c0 -75 -6
-82 -68 -85 l-56 -3 -8 -40 c-5 -22 -40 -105 -78 -185 -79 -165 -92 -211 -88
-294 l3 -58 55 -1 55 -1 6 84 c8 116 19 149 100 312 l69 140 0 -88 c0 -73 -4
-95 -21 -124 -39 -64 -70 -161 -76 -241 l-6 -79 52 0 c50 0 51 -1 51 -30 l0
-30 -1071 1 -1070 1 -35 46 c-18 26 -41 70 -49 99 -14 46 -14 58 -1 117 9 37
45 122 81 193 36 71 68 143 72 161 5 32 5 32 -33 32 -69 0 -78 -7 -92 -63 -6
-29 -44 -117 -82 -197 -60 -125 -72 -157 -80 -228 -8 -61 -8 -88 0 -98 9 -10
6 -18 -12 -36 l-23 -23 -661 -3 -660 -3 -19 21 c-16 18 -19 34 -16 93 5 120
27 203 82 305 28 51 61 122 75 158 l24 64 -59 0 -59 0 -6 -34 c-9 -49 -48
-141 -105 -248 -27 -51 -55 -120 -62 -152 l-13 -59 -28 33 c-39 47 -31 84 57
265 101 206 100 195 27 195 l-60 0 -11 -47 c-15 -57 -106 -253 -119 -253 -4 0
-16 16 -25 35 -17 35 -17 36 18 104 29 57 65 144 65 157 0 2 -27 4 -60 4 -50
0 -60 -3 -61 -17 0 -10 -6 -36 -13 -58 l-12 -40 -21 70 c-12 39 -24 91 -28
118 l-6 47 349 0 349 0 20 -60z m3978 23 c3 -21 9 -48 12 -60 5 -22 2 -23 -50
-23 -53 0 -55 -1 -60 -30 -6 -27 -10 -30 -43 -30 -34 0 -35 1 -29 30 l7 30
-60 0 c-58 0 -60 -1 -65 -30 -4 -17 -13 -30 -21 -30 -21 0 -46 28 -40 44 3 7
-2 16 -10 19 -9 4 -16 17 -16 29 -1 13 -7 34 -15 48 -8 14 -14 28 -15 33 0 4
89 7 199 7 l199 0 7 -37z"/>
<path d="M8257 2688 c7 -46 13 -48 13 -5 0 21 -4 37 -9 37 -5 0 -7 -15 -4 -32z"/>
<path d="M7726 2395 c-21 -10 -110 -176 -122 -227 l-6 -28 59 0 58 0 12 50 c7
28 28 86 48 129 19 43 35 81 35 85 0 9 -59 3 -84 -9z"/>
<path d="M7885 2356 c-31 -48 -73 -140 -90 -194 -6 -22 -5 -23 51 -20 l58 3
11 45 c7 25 27 81 45 125 19 44 33 82 32 85 -1 2 -18 5 -37 7 -33 2 -38 -2
-70 -51z"/>
<path d="M8075 2365 c-30 -38 -95 -181 -95 -207 0 -15 9 -18 55 -18 52 0 55 2
60 28 8 33 46 144 69 195 l16 37 -39 0 c-34 0 -44 -5 -66 -35z"/>
<path d="M3267 2638 c-7 -101 -32 -176 -91 -271 -46 -74 -96 -185 -96 -212 0
-12 13 -15 60 -15 47 0 60 3 60 15 0 28 38 129 90 238 58 123 80 199 80 274
l0 53 -49 0 -48 0 -6 -82z"/>
<path d="M3458 2633 c-6 -100 -32 -178 -87 -263 -36 -57 -101 -195 -101 -217
0 -9 18 -13 58 -13 l57 0 12 51 c7 29 42 115 77 193 70 153 85 203 86 284 l0
52 -49 0 -48 0 -5 -87z"/>
<path d="M3840 2663 c0 -32 -4 -75 -9 -95 -8 -36 -7 -38 14 -38 13 0 26 -4 30
-10 8 -13 32 -2 41 18 4 9 10 54 13 100 l6 82 -47 0 -48 0 0 -57z"/>
<path d="M4308 2363 c-20 -22 -84 -157 -94 -196 l-6 -28 57 3 58 3 14 55 c8
30 25 79 39 109 13 30 23 55 22 57 -2 1 -19 5 -38 9 -28 5 -39 2 -52 -12z"/>
<path d="M6631 2437 c-6 -8 -7 -18 -3 -22 4 -5 0 -6 -10 -2 -11 4 -24 -6 -42
-31 -34 -50 -95 -181 -98 -212 -3 -24 -1 -25 51 -25 l54 0 13 53 c8 30 28 86
46 125 17 40 31 80 30 90 0 10 4 15 10 11 7 -4 8 -2 4 5 -6 9 -11 9 -21 1 -8
-7 -15 -7 -19 -1 -3 5 0 12 6 14 8 4 9 6 2 6 -6 1 -17 -5 -23 -12z"/>
<path d="M6485 2430 c-3 -5 -1 -10 4 -10 6 0 11 5 11 10 0 6 -2 10 -4 10 -3 0
-8 -4 -11 -10z"/>
<path d="M6395 2384 c-29 -38 -102 -188 -107 -219 -3 -18 3 -20 53 -23 l57 -3
7 38 c3 21 24 80 46 132 22 51 38 95 36 97 -2 2 -18 6 -35 8 -26 3 -36 -2 -57
-30z"/>
<path d="M6772 2388 c-26 -28 -101 -184 -104 -218 -3 -24 -1 -25 52 -25 l54 0
8 40 c5 21 25 77 45 123 28 67 33 86 22 92 -7 5 -22 4 -32 -2 -14 -7 -17 -7
-13 1 13 20 -10 12 -32 -11z"/>
<path d="M10417 2643 c-8 -98 -28 -154 -116 -326 -39 -76 -71 -148 -71 -158 0
-18 6 -20 57 -17 l56 3 17 61 c9 34 42 115 73 180 62 132 73 168 83 267 l7 67
-50 0 -50 0 -6 -77z"/>
<path d="M10607 2643 c-8 -96 -34 -175 -91 -274 -48 -82 -96 -189 -96 -214 0
-12 13 -15 58 -15 l57 0 17 63 c9 34 42 115 73 180 56 118 85 215 85 295 l0
42 -49 0 -48 0 -6 -77z"/>
<path d="M11260 2349 c-24 -33 -90 -183 -90 -204 0 -3 27 -5 60 -5 57 0 60 1
65 28 6 27 39 116 69 185 l16 37 -45 0 c-41 0 -47 -3 -75 -41z"/>
<path d="M7263 898 c-7 -29 -44 -117 -83 -195 -58 -117 -73 -157 -82 -221 -15
-105 -12 -112 57 -112 l55 0 0 48 c1 111 27 200 99 346 97 195 95 186 24 186
l-58 0 -12 -52z"/>
<path d="M7441 882 c-11 -38 -47 -120 -79 -183 -66 -128 -82 -181 -82 -268 l0
-61 60 0 60 0 0 64 c0 109 24 194 94 333 36 70 68 140 72 156 6 27 6 27 -49
27 l-55 0 -21 -68z"/>
<path d="M8821 1003 c-14 -3 -51 -31 -83 -64 -56 -55 -61 -55 -41 -1 4 9 -11
12 -56 12 -47 0 -61 -3 -61 -15 0 -29 -33 -113 -96 -240 -63 -129 -84 -198
-84 -281 l0 -44 44 0 c24 0 51 -2 59 -5 11 -5 15 11 21 77 10 120 27 180 82
291 l49 97 -1 -92 c-1 -75 -5 -101 -23 -136 -24 -46 -49 -188 -38 -215 5 -13
19 -17 62 -17 l55 0 0 43 c0 41 18 168 24 175 2 2 17 -5 33 -15 24 -15 28 -22
22 -43 -4 -14 -7 -55 -8 -92 l-1 -68 60 0 59 0 3 77 3 78 35 3 35 3 -3 -81 -4
-80 61 0 61 0 0 63 c1 98 12 129 64 177 64 59 70 73 72 160 0 52 7 91 22 128
l22 52 -60 0 c-39 0 -60 -4 -60 -12 0 -6 -10 -3 -22 8 -56 50 -79 57 -183 60
-55 1 -111 0 -124 -3z m252 -42 c35 -17 59 -39 85 -79 32 -48 37 -64 40 -126
3 -67 2 -73 -28 -109 -56 -66 -99 -82 -225 -82 -100 0 -115 2 -167 28 -80 39
-103 75 -101 153 3 103 52 191 127 225 60 29 202 23 269 -10z"/>
<path d="M8016 916 c-9 -46 -46 -133 -105 -247 -51 -100 -75 -186 -69 -254 l3
-40 58 -3 57 -3 0 55 c0 105 26 202 83 310 30 55 64 127 75 159 l22 57 -59 0
-59 0 -6 -34z"/>
<path d="M8206 938 c-3 -7 -7 -26 -11 -43 -3 -16 -41 -102 -83 -189 -74 -155
-76 -162 -80 -248 l-4 -88 61 0 61 0 0 78 c1 109 18 167 99 332 39 80 71 150
71 157 0 18 -109 18 -114 1z"/>
<path d="M8395 938 c-2 -7 -11 -38 -21 -68 -9 -30 -46 -112 -81 -182 -53 -106
-65 -140 -73 -205 -14 -109 -11 -115 58 -111 l57 3 2 60 c5 114 23 177 94 320
37 77 71 152 75 168 l6 27 -56 0 c-37 0 -58 -4 -61 -12z"/>
<path d="M9336 938 c-3 -7 -7 -26 -11 -43 -3 -16 -40 -102 -83 -190 l-77 -159
0 -90 0 -90 55 -1 55 0 6 85 c10 125 22 164 99 320 38 79 70 151 70 161 0 16
-8 19 -55 19 -36 0 -57 -4 -59 -12z"/>
<path d="M9521 903 c-7 -27 -43 -111 -80 -188 -80 -162 -91 -197 -91 -282 l0
-63 60 0 60 0 0 68 c1 108 22 180 99 333 39 78 71 150 71 161 0 15 -8 18 -54
18 l-54 0 -11 -47z"/>
<path d="M11962 903 c-7 -27 -47 -119 -89 -206 -75 -155 -76 -158 -77 -240
l-1 -82 58 -3 57 -3 0 55 c0 106 25 197 91 327 34 68 68 141 75 161 l13 38
-57 0 -58 0 -12 -47z"/>
<path d="M12160 934 c0 -14 3 -14 15 -4 8 7 15 14 15 16 0 2 -7 4 -15 4 -8 0
-15 -7 -15 -16z"/>
<path d="M12575 904 c19 -25 35 -51 35 -57 1 -17 18 15 35 63 l14 40 -59 0
-60 0 35 -46z"/>
<path d="M12725 938 c-2 -7 -11 -38 -21 -68 -9 -30 -46 -114 -81 -185 -54
-111 -65 -142 -72 -209 -5 -44 -7 -85 -4 -93 4 -10 21 -13 60 -11 l54 3 4 71
c7 110 27 178 98 324 92 188 91 180 22 180 -36 0 -57 -4 -60 -12z"/>
<path d="M12903 898 c-7 -29 -44 -117 -83 -194 -58 -118 -72 -155 -81 -222
-16 -108 -13 -114 58 -110 l57 3 3 65 c6 115 23 172 93 315 38 77 72 152 76
168 l6 27 -59 0 -58 0 -12 -52z"/>
<path d="M13666 938 c-2 -7 -9 -33 -16 -58 -7 -25 -44 -109 -83 -188 -69 -139
-71 -145 -75 -232 l-4 -90 61 0 61 0 0 54 c0 107 26 202 86 314 31 58 65 130
75 159 l18 53 -60 0 c-39 0 -61 -4 -63 -12z"/>
<path d="M12047 667 c-52 -104 -70 -171 -65 -243 l3 -49 58 -3 57 -3 0 48 c0
26 7 88 16 137 12 73 13 94 3 113 -7 13 -13 39 -13 58 -1 19 -4 35 -7 35 -3 0
-26 -42 -52 -93z"/>
<path d="M12189 564 c-7 -16 -14 -66 -17 -111 l-4 -81 57 -4 c33 -2 59 1 60 7
2 6 6 51 9 101 l7 92 -36 6 c-20 4 -43 10 -51 13 -9 3 -18 -5 -25 -23z"/>
<path d="M12427 563 c-33 -4 -41 -9 -53 -38 -8 -19 -14 -62 -14 -95 l0 -60 60
0 60 0 0 54 c0 29 3 74 6 100 5 36 4 46 -7 44 -8 -1 -31 -3 -52 -5z"/>
<path d="M4020 1017 c-102 -24 -164 -90 -191 -205 -6 -26 -33 -92 -60 -147
-37 -75 -52 -120 -61 -181 -15 -107 -12 -114 57 -114 l55 0 0 48 c1 57 26 202
37 213 4 4 20 -3 34 -15 27 -23 27 -24 13 -77 -8 -29 -14 -79 -14 -111 l0 -58
50 0 c28 0 53 0 58 0 4 0 10 39 14 86 4 48 10 89 12 92 3 2 18 1 35 -3 l30 -6
-6 -85 -6 -84 62 0 61 0 0 53 c0 98 9 123 47 141 20 9 37 15 39 13 2 -2 -1
-19 -6 -38 -6 -18 -10 -64 -10 -101 l0 -68 58 0 58 0 2 76 c3 109 24 179 98
324 35 69 66 140 70 156 6 30 5 30 -41 33 -50 2 -75 -11 -75 -39 0 -10 -10
-44 -22 -75 l-21 -56 -15 38 c-15 39 -19 75 -11 107 3 15 -3 19 -35 23 -22 2
-51 12 -65 22 -58 41 -166 57 -251 38z m216 -41 c84 -39 134 -122 134 -221 0
-68 -28 -111 -98 -152 -36 -21 -62 -28 -127 -31 -138 -7 -247 36 -285 113 -17
36 -18 48 -9 104 15 98 56 162 123 192 63 29 195 26 262 -5z"/>
<path d="M3314 952 c11 -17 -16 -89 -92 -246 -74 -154 -76 -160 -80 -247 l-4
-89 61 0 61 0 0 59 c0 103 25 189 99 342 39 79 72 153 73 164 3 18 -4 20 -60
23 -36 2 -61 -1 -58 -6z"/>
<path d="M3524 952 c-6 -4 -19 -32 -27 -63 -9 -31 -45 -114 -81 -185 -74 -149
-86 -186 -86 -271 l0 -63 60 0 60 0 0 68 c1 108 22 180 99 333 39 78 71 153
71 166 0 20 -5 23 -42 23 -24 0 -48 -4 -54 -8z"/>
<path d="M4650 954 c-9 -3 -21 -27 -28 -57 -6 -29 -44 -118 -83 -198 -57 -119
-72 -160 -80 -220 -13 -105 -10 -111 59 -107 l57 3 2 60 c5 114 23 177 94 320
38 77 72 154 75 170 5 29 5 30 -38 31 -24 1 -50 0 -58 -2z"/>
<path d="M5392 943 c-5 -10 -12 -31 -16 -48 -4 -16 -41 -101 -82 -187 -72
-149 -76 -161 -81 -242 l-6 -86 52 0 c28 0 54 -1 59 -2 4 -2 10 33 14 77 10
125 24 169 98 320 38 77 71 149 72 160 3 17 -4 20 -49 23 -42 2 -54 0 -61 -15z"/>
<path d="M6321 903 c-7 -27 -43 -111 -81 -188 -75 -151 -89 -199 -90 -287 l0
-58 60 0 60 0 0 46 c0 113 20 185 95 339 101 208 99 195 27 195 l-60 0 -11
-47z"/>
<path d="M6511 899 c-8 -29 -44 -114 -82 -190 -69 -140 -93 -221 -87 -294 l3
-40 58 -3 57 -3 0 55 c0 106 25 198 89 323 33 65 67 137 75 161 l15 42 -58 0
-57 0 -13 -51z"/>
</g>
</svg>
